Coordinates
version=1
nRows=13
nColumns=30
inDegrees=yes

Units are S.I. units (second, meters, Newtons, ...)
Angles are in degrees.

endheader
time	floatyaw	floatroll	floatpitch	floatx	floaty	floatz	pro_sup_l	deviation_l	flexion_l	cmc_flexion_l	cmc_abduction_l	mp_flexion_l	ip_flexion_l	2mcp_flexion_l	2mcp_abduction_l	2pm_flexion_l	2md_flexion_l	3mcp_flexion_l	3mcp_abduction_l	3pm_flexion_l	3md_flexion_l	4mcp_flexion_l	4mcp_abduction_l	4pm_flexion_l	4md_flexion_l	5mcp_flexion_l	5mcp_abduction_l	5pm_flexion_l	5md_flexion_l
33.733333	-160.147433	-5.066637	-73.570646	-0.059676	-0.124774	-0.105882	93.913928	27.916872	-5.798244	8.891236	9.382852	-31.045403	-50.697539	42.925959	15.036925	66.433482	72.067138	38.990121	6.018633	81.948024	58.492973	33.067424	-6.141299	90.555239	73.251900	27.532261	-13.681206	93.048857	73.240037
33.766667	-160.147433	-5.066637	-73.570646	-0.059676	-0.124774	-0.105882	93.913928	27.916872	-5.798244	8.891236	9.382852	-31.045403	-50.697539	42.925959	15.036925	66.433482	72.067138	38.990121	6.018633	81.948024	58.492973	33.067424	-6.141299	90.555239	73.251900	27.532261	-13.681206	93.048857	73.240037
33.800000	-160.147433	-5.066637	-73.570646	-0.059676	-0.124774	-0.105882	93.913928	27.916872	-5.798244	8.891236	9.382852	-31.045403	-50.697539	42.925959	15.036925	66.433482	72.067138	38.990121	6.018633	81.948024	58.492973	33.067424	-6.141299	90.555239	73.251900	27.532261	-13.681206	93.048857	73.240037
33.833333	-160.147433	-5.066637	-73.570646	-0.059676	-0.124774	-0.105882	93.913928	27.916872	-5.798244	8.891236	9.382852	-31.045403	-50.697539	42.925959	15.036925	66.433482	72.067138	38.990121	6.018633	81.948024	58.492973	33.067424	-6.141299	90.555239	73.251900	27.532261	-13.681206	93.048857	73.240037
33.866667	-160.147433	-5.066637	-73.570646	-0.059676	-0.124774	-0.105882	93.913928	27.916872	-5.798244	8.891236	9.382852	-31.045403	-50.697539	42.925959	15.036925	66.433482	72.067138	38.990121	6.018633	81.948024	58.492973	33.067424	-6.141299	90.555239	73.251900	27.532261	-13.681206	93.048857	73.240037
33.900000	-160.147433	-5.066637	-73.570646	-0.059676	-0.124774	-0.105882	93.913928	27.916872	-5.798244	8.891236	9.382852	-31.045403	-50.697539	42.925959	15.036925	66.433482	72.067138	38.990121	6.018633	81.948024	58.492973	33.067424	-6.141299	90.555239	73.251900	27.532261	-13.681206	93.048857	73.240037
33.933333	-160.147433	-5.066637	-73.570646	-0.059676	-0.124774	-0.105882	93.913928	27.916872	-5.798244	8.891236	9.382852	-31.045403	-50.697539	42.925959	15.036925	66.433482	72.067138	38.990121	6.018633	81.948024	58.492973	33.067424	-6.141299	90.555239	73.251900	27.532261	-13.681206	93.048857	73.240037
33.966667	-160.147433	-5.066637	-73.570646	-0.059676	-0.124774	-0.105882	93.913928	27.916872	-5.798244	8.891236	9.382852	-31.045403	-50.697539	42.925959	15.036925	66.433482	72.067138	38.990121	6.018633	81.948024	58.492973	33.067424	-6.141299	90.555239	73.251900	27.532261	-13.681206	93.048857	73.240037
34.000000	-160.147433	-5.066637	-73.570646	-0.054975	-0.128994	-0.115202	50.085707	1.296076	2.469061	8.902380	-5.731620	-30.742487	-48.985870	46.534712	14.528335	63.497406	68.779502	44.801658	5.661168	80.056838	61.484285	28.146202	-5.337414	83.899445	69.541330	9.546950	-13.701461	94.468359	75.077040
34.033333	-160.147433	-5.066637	-73.570646	-0.054975	-0.128994	-0.115202	50.085707	1.296076	2.469061	8.902380	-5.731620	-30.742487	-48.985870	46.534712	14.528335	63.497406	68.779502	44.801658	5.661168	80.056838	61.484285	28.146202	-5.337414	83.899445	69.541330	9.546950	-13.701461	94.468359	75.077040
34.066667	-160.147433	-5.066637	-73.570646	-0.054975	-0.128994	-0.115202	50.085707	1.296076	2.469061	8.902380	-5.731620	-30.742487	-48.985870	46.534712	14.528335	63.497406	68.779502	44.801658	5.661168	80.056838	61.484285	28.146202	-5.337414	83.899445	69.541330	9.546950	-13.701461	94.468359	75.077040
34.100000	-160.147433	-5.066637	-73.570646	-0.054975	-0.128994	-0.115202	50.085707	1.296076	2.469061	8.902380	-5.731620	-30.742487	-48.985870	46.534712	14.528335	63.497406	68.779502	44.801658	5.661168	80.056838	61.484285	28.146202	-5.337414	83.899445	69.541330	9.546950	-13.701461	94.468359	75.077040
34.133333	-160.147433	-5.066637	-73.570646	-0.054975	-0.128994	-0.115202	50.085707	1.296076	2.469061	8.902380	-5.731620	-30.742487	-48.985870	46.534712	14.528335	63.497406	68.779502	44.801658	5.661168	80.056838	61.484285	28.146202	-5.337414	83.899445	69.541330	9.546950	-13.701461	94.468359	75.077040
